<?xml version="1.0" encoding="UTF-8"?>
<svg id="Layer_1" data-name="Layer 1" xmlns="http://www.w3.org/2000/svg" viewBox="0 0 159.37 151.77">
  <rect x="128.63" width="30.74" height="73.62"/>
  <polygon points="159.37 78.15 159.37 151.77 128.63 151.77 128.63 81.31 128.64 81.3 128.63 81.27 128.63 78.15 159.37 78.15"/>
  <polygon points="127.58 79.71 127.57 79.72 127.57 79.68 127.58 79.71"/>
  <polygon points="127.58 79.71 127.57 79.72 127.57 79.68 127.58 79.71"/>
  <path d="M114.62,59.62l-15.34-23.76-8.92-13.82-12.92-20.01-1.3-2.03h-28.62l-1.3,2.02-12.92,20.02-12.46,19.31L0,73.62h31.23l7.74-11.99h45.71l7.73,11.99h31.23l-9.03-14ZM50.88,43.19l10.95-16.97,10.95,16.97h-21.9Z"/>
  <polygon points="122 151.77 81.81 151.77 49.54 128.67 31.23 140.79 31.23 151.77 0 151.77 0 78.15 31.23 78.15 31.23 118.8 92.42 78.15 123.65 78.15 71.15 114.46 122 151.77"/>
</svg>